<?xml version="1.0" encoding="UTF-8" standalone="no"?>
<!-- Created with Inkscape (http://www.inkscape.org/) -->

<svg
   width="185.10631mm"
   height="185.38428mm"
   viewBox="0 0 185.10631 185.38428"
   version="1.1"
   id="svg5"
   xml:space="preserve"
   inkscape:version="1.2.2 (732a01da63, 2022-12-09)"
   sodipodi:docname="cvlogo.svg"
   inkscape:export-filename="OneDrive\Documentos\cvlogo.svg"
   inkscape:export-xdpi="137.21844"
   inkscape:export-ydpi="137.21844"
   xmlns:inkscape="http://www.inkscape.org/namespaces/inkscape"
   xmlns:sodipodi="http://sodipodi.sourceforge.net/DTD/sodipodi-0.dtd"
   xmlns="http://www.w3.org/2000/svg"
   xmlns:svg="http://www.w3.org/2000/svg"><sodipodi:namedview
     id="namedview7"
     pagecolor="#505050"
     bordercolor="#eeeeee"
     borderopacity="1"
     inkscape:showpageshadow="0"
     inkscape:pageopacity="0"
     inkscape:pagecheckerboard="0"
     inkscape:deskcolor="#505050"
     inkscape:document-units="mm"
     showgrid="false"
     inkscape:zoom="1.0847092"
     inkscape:cx="240.15653"
     inkscape:cy="376.13768"
     inkscape:window-width="1920"
     inkscape:window-height="1046"
     inkscape:window-x="-11"
     inkscape:window-y="-11"
     inkscape:window-maximized="1"
     inkscape:current-layer="layer3" /><defs
     id="defs2" /><g
     inkscape:groupmode="layer"
     id="layer3"
     inkscape:label="vclogo"
     style="display:inline"
     transform="translate(-66.275123,-77.388071)"><g
       id="g15639"
       inkscape:label="vclogo"><path
         style="display:inline;fill:#000000;fill-opacity:1;stroke:none;stroke-width:0.264583;stroke-opacity:1"
         d="M 41.821379,57.771322 C 8.6281889,113.27924 35.924521,171.60648 82.029613,192.63333 c 42.675457,19.46273 105.652467,4.3374 126.185607,-56.02111 l -8.55346,-0.0572 c -22.65847,54.43 -76.54252,65.70594 -113.967616,48.26223 C 43.963601,165.36679 20.409234,116.56632 46.760697,66.233915 Z"
         id="c"
         sodipodi:nodetypes="csccscc"
         inkscape:label="c-inferior"
         transform="translate(39.127455,62.148149)" /><path
         style="display:inline;fill:#000000;fill-opacity:1;stroke:none;stroke-width:0.264583;stroke-opacity:1"
         d="M 212.25397,100.22668 C 210.94479,77.567939 199.38325,55.184706 185.37631,42.332546 L 118.77662,163.92986 113.79596,154.63809 178.79754,36.00117 C 143.96002,6.6196656 83.118777,5.8431655 47.369399,50.433962 L 96.304256,139.99789 101.10871,131.18521 57.378369,51.481106 C 92.282126,15.308123 140.0639,18.016839 168.03334,38.432827 l -63.64711,116.060713 14.39655,26.02301 68.17749,-124.238027 c 7.74071,9.845498 16.35896,27.996339 16.90621,43.921017 z"
         id="V"
         sodipodi:nodetypes="ccccccccccccccc"
         inkscape:label="v-superior"
         transform="translate(39.127455,62.148149)" /></g></g></svg>
